<mxfile host="app.diagrams.net" agent="Mozilla/5.0 (Windows NT 10.0; Win64; x64) AppleWebKit/537.36 (KHTML, like Gecko) Chrome/137.0.0.0 Safari/537.36" version="27.1.6">
  <diagram name="Page-1" id="-5PCMbEA47v5Vgmdig3Y">
    <mxGraphModel dx="768" dy="748" grid="1" gridSize="10" guides="1" tooltips="1" connect="1" arrows="1" fold="1" page="1" pageScale="1" pageWidth="827" pageHeight="1169" math="0" shadow="0">
      <root>
        <mxCell id="0" />
        <mxCell id="1" parent="0" />
        <mxCell id="ef4OIBcGmvWctXyTMNX9-4" style="edgeStyle=orthogonalEdgeStyle;rounded=0;orthogonalLoop=1;jettySize=auto;html=1;exitX=1;exitY=0.5;exitDx=0;exitDy=0;entryX=0;entryY=0.5;entryDx=0;entryDy=0;" edge="1" parent="1" source="ef4OIBcGmvWctXyTMNX9-1" target="ef4OIBcGmvWctXyTMNX9-3">
          <mxGeometry relative="1" as="geometry" />
        </mxCell>
        <mxCell id="ef4OIBcGmvWctXyTMNX9-16" value="Time=Alarma" style="edgeLabel;html=1;align=center;verticalAlign=middle;resizable=0;points=[];" vertex="1" connectable="0" parent="ef4OIBcGmvWctXyTMNX9-4">
          <mxGeometry x="0.1714" y="4" relative="1" as="geometry">
            <mxPoint x="-11" y="-6" as="offset" />
          </mxGeometry>
        </mxCell>
        <mxCell id="ef4OIBcGmvWctXyTMNX9-1" value="Reloj" style="ellipse;whiteSpace=wrap;html=1;" vertex="1" parent="1">
          <mxGeometry x="230" y="310" width="120" height="80" as="geometry" />
        </mxCell>
        <mxCell id="ef4OIBcGmvWctXyTMNX9-6" style="edgeStyle=orthogonalEdgeStyle;rounded=0;orthogonalLoop=1;jettySize=auto;html=1;exitX=1;exitY=0;exitDx=0;exitDy=0;entryX=0.5;entryY=1;entryDx=0;entryDy=0;" edge="1" parent="1" source="ef4OIBcGmvWctXyTMNX9-3" target="ef4OIBcGmvWctXyTMNX9-5">
          <mxGeometry relative="1" as="geometry" />
        </mxCell>
        <mxCell id="ef4OIBcGmvWctXyTMNX9-22" value="!pausa pressed &amp;amp;&amp;amp; paso 1min" style="edgeLabel;html=1;align=center;verticalAlign=middle;resizable=0;points=[];" vertex="1" connectable="0" parent="ef4OIBcGmvWctXyTMNX9-6">
          <mxGeometry x="-0.4748" y="3" relative="1" as="geometry">
            <mxPoint x="141" y="-9" as="offset" />
          </mxGeometry>
        </mxCell>
        <mxCell id="ef4OIBcGmvWctXyTMNX9-10" style="edgeStyle=orthogonalEdgeStyle;rounded=0;orthogonalLoop=1;jettySize=auto;html=1;exitX=0;exitY=1;exitDx=0;exitDy=0;entryX=0.5;entryY=1;entryDx=0;entryDy=0;" edge="1" parent="1" source="ef4OIBcGmvWctXyTMNX9-3" target="ef4OIBcGmvWctXyTMNX9-1">
          <mxGeometry relative="1" as="geometry">
            <Array as="points">
              <mxPoint x="438" y="440" />
              <mxPoint x="290" y="440" />
            </Array>
          </mxGeometry>
        </mxCell>
        <mxCell id="ef4OIBcGmvWctXyTMNX9-17" value="Press Stop" style="edgeLabel;html=1;align=center;verticalAlign=middle;resizable=0;points=[];" vertex="1" connectable="0" parent="ef4OIBcGmvWctXyTMNX9-10">
          <mxGeometry x="-0.0566" y="2" relative="1" as="geometry">
            <mxPoint x="-7" y="8" as="offset" />
          </mxGeometry>
        </mxCell>
        <mxCell id="ef4OIBcGmvWctXyTMNX9-13" style="edgeStyle=orthogonalEdgeStyle;rounded=0;orthogonalLoop=1;jettySize=auto;html=1;exitX=1;exitY=1;exitDx=0;exitDy=0;entryX=0.5;entryY=0;entryDx=0;entryDy=0;" edge="1" parent="1" source="ef4OIBcGmvWctXyTMNX9-3" target="ef4OIBcGmvWctXyTMNX9-12">
          <mxGeometry relative="1" as="geometry" />
        </mxCell>
        <mxCell id="ef4OIBcGmvWctXyTMNX9-21" value="Press Pausa || (Pausa pressed &amp;amp;&amp;amp; paso 1min)" style="edgeLabel;html=1;align=center;verticalAlign=middle;resizable=0;points=[];" vertex="1" connectable="0" parent="ef4OIBcGmvWctXyTMNX9-13">
          <mxGeometry x="-0.1892" y="3" relative="1" as="geometry">
            <mxPoint x="153" y="35" as="offset" />
          </mxGeometry>
        </mxCell>
        <mxCell id="ef4OIBcGmvWctXyTMNX9-3" value="Notificar&lt;span style=&quot;color: rgba(0, 0, 0, 0); font-family: monospace; font-size: 0px; text-align: start; text-wrap-mode: nowrap;&quot;&gt;%3CmxGraphModel%3E%3Croot%3E%3CmxCell%20id%3D%220%22%2F%3E%3CmxCell%20id%3D%221%22%20parent%3D%220%22%2F%3E%3CmxCell%20id%3D%222%22%20value%3D%22Reloj%22%20style%3D%22ellipse%3BwhiteSpace%3Dwrap%3Bhtml%3D1%3B%22%20vertex%3D%221%22%20parent%3D%221%22%3E%3CmxGeometry%20x%3D%22230%22%20y%3D%22310%22%20width%3D%22120%22%20height%3D%2280%22%20as%3D%22geometry%22%2F%3E%3C%2FmxCell%3E%3C%2Froot%3E%3C%2FmxGraphModel%3E&lt;/span&gt;&lt;span style=&quot;color: rgba(0, 0, 0, 0); font-family: monospace; font-size: 0px; text-align: start; text-wrap-mode: nowrap;&quot;&gt;%3CmxGraphModel%3E%3Croot%3E%3CmxCell%20id%3D%220%22%2F%3E%3CmxCell%20id%3D%221%22%20parent%3D%220%22%2F%3E%3CmxCell%20id%3D%222%22%20value%3D%22Reloj%22%20style%3D%22ellipse%3BwhiteSpace%3Dwrap%3Bhtml%3D1%3B%22%20vertex%3D%221%22%20parent%3D%221%22%3E%3CmxGeometry%20x%3D%22230%22%20y%3D%22310%22%20width%3D%22120%22%20height%3D%2280%22%20as%3D%22geometry%22%2F%3E%3C%2FmxCell%3E%3C%2Froot%3E%3C%2FmxGraphModel%3E&lt;/span&gt;" style="ellipse;whiteSpace=wrap;html=1;" vertex="1" parent="1">
          <mxGeometry x="420" y="310" width="120" height="80" as="geometry" />
        </mxCell>
        <mxCell id="ef4OIBcGmvWctXyTMNX9-7" style="edgeStyle=orthogonalEdgeStyle;rounded=0;orthogonalLoop=1;jettySize=auto;html=1;exitX=0;exitY=0.5;exitDx=0;exitDy=0;entryX=0.5;entryY=0;entryDx=0;entryDy=0;" edge="1" parent="1" source="ef4OIBcGmvWctXyTMNX9-5" target="ef4OIBcGmvWctXyTMNX9-3">
          <mxGeometry relative="1" as="geometry" />
        </mxCell>
        <mxCell id="ef4OIBcGmvWctXyTMNX9-23" value="5min" style="edgeLabel;html=1;align=center;verticalAlign=middle;resizable=0;points=[];" vertex="1" connectable="0" parent="ef4OIBcGmvWctXyTMNX9-7">
          <mxGeometry x="-0.56" y="2" relative="1" as="geometry">
            <mxPoint x="-27" y="-12" as="offset" />
          </mxGeometry>
        </mxCell>
        <mxCell id="ef4OIBcGmvWctXyTMNX9-9" style="edgeStyle=orthogonalEdgeStyle;rounded=0;orthogonalLoop=1;jettySize=auto;html=1;exitX=0.5;exitY=0;exitDx=0;exitDy=0;entryX=0.5;entryY=0;entryDx=0;entryDy=0;" edge="1" parent="1" source="ef4OIBcGmvWctXyTMNX9-5" target="ef4OIBcGmvWctXyTMNX9-1">
          <mxGeometry relative="1" as="geometry" />
        </mxCell>
        <mxCell id="ef4OIBcGmvWctXyTMNX9-18" value="Press Stop" style="edgeLabel;html=1;align=center;verticalAlign=middle;resizable=0;points=[];" vertex="1" connectable="0" parent="ef4OIBcGmvWctXyTMNX9-9">
          <mxGeometry x="0.0417" y="-3" relative="1" as="geometry">
            <mxPoint y="-7" as="offset" />
          </mxGeometry>
        </mxCell>
        <mxCell id="ef4OIBcGmvWctXyTMNX9-5" value="Reloj/Alarma" style="ellipse;whiteSpace=wrap;html=1;" vertex="1" parent="1">
          <mxGeometry x="560" y="200" width="120" height="80" as="geometry" />
        </mxCell>
        <mxCell id="ef4OIBcGmvWctXyTMNX9-14" style="edgeStyle=orthogonalEdgeStyle;rounded=0;orthogonalLoop=1;jettySize=auto;html=1;exitX=0;exitY=0.5;exitDx=0;exitDy=0;entryX=0.5;entryY=1;entryDx=0;entryDy=0;" edge="1" parent="1" source="ef4OIBcGmvWctXyTMNX9-12" target="ef4OIBcGmvWctXyTMNX9-3">
          <mxGeometry relative="1" as="geometry" />
        </mxCell>
        <mxCell id="ef4OIBcGmvWctXyTMNX9-20" value="5min &amp;amp;&amp;amp; cant&amp;lt;3" style="edgeLabel;html=1;align=center;verticalAlign=middle;resizable=0;points=[];" vertex="1" connectable="0" parent="ef4OIBcGmvWctXyTMNX9-14">
          <mxGeometry x="-0.4706" y="-2" relative="1" as="geometry">
            <mxPoint x="5" y="12" as="offset" />
          </mxGeometry>
        </mxCell>
        <mxCell id="ef4OIBcGmvWctXyTMNX9-15" style="edgeStyle=orthogonalEdgeStyle;rounded=0;orthogonalLoop=1;jettySize=auto;html=1;exitX=0.5;exitY=1;exitDx=0;exitDy=0;entryX=0;entryY=0.5;entryDx=0;entryDy=0;" edge="1" parent="1" source="ef4OIBcGmvWctXyTMNX9-12" target="ef4OIBcGmvWctXyTMNX9-1">
          <mxGeometry relative="1" as="geometry" />
        </mxCell>
        <mxCell id="ef4OIBcGmvWctXyTMNX9-19" value="Press Stop || cant==3" style="edgeLabel;html=1;align=center;verticalAlign=middle;resizable=0;points=[];" vertex="1" connectable="0" parent="ef4OIBcGmvWctXyTMNX9-15">
          <mxGeometry x="-0.5937" y="2" relative="1" as="geometry">
            <mxPoint x="-100" y="8" as="offset" />
          </mxGeometry>
        </mxCell>
        <mxCell id="ef4OIBcGmvWctXyTMNX9-12" value="Reloj/Pausa" style="ellipse;whiteSpace=wrap;html=1;" vertex="1" parent="1">
          <mxGeometry x="560" y="440" width="120" height="80" as="geometry" />
        </mxCell>
      </root>
    </mxGraphModel>
  </diagram>
</mxfile>
